Coordinates
version=1
nRows=21
nColumns=28
inDegrees=yes

Units are S.I. units (second, meters, Newtons, ...)
Angles are in degrees.

endheader
time	pelvis_tilt	pelvis_list	pelvis_rotation	pelvis_tx	pelvis_ty	pelvis_tz	hip_flexion_r	hip_adduction_r	hip_rotation_r	knee_angle_r	ankle_angle_r	subtalar_angle_r	mtp_angle_r	hip_flexion_l	hip_adduction_l	hip_rotation_l	knee_angle_l	socket_flexion	socket_adduction	socket_rotation	socket_tx	socket_ty	socket_tz	foot_flex	lumbar_extension	lumbar_bending	lumbar_rotation
      0.00000000	     -2.38678018	     -0.79599055	     -3.08813966	     -0.78912221	      0.97079808	      0.25417402	    -21.64501869	      3.36507009	      7.12784624	     -0.84848549	     -3.08997446	    -20.83927420	      8.60231785	     24.51335375	      1.22962009	      0.87063277	      1.50745996	      3.16434784	     -2.98451571	      2.15760255	      0.01953805	      0.00050912	     -0.01131779	     -1.69595419	     -6.59617167	      0.57005911	      1.23665244
      0.00416667	     -2.34997309	     -0.72129267	     -3.17706194	     -0.78375525	      0.96964385	      0.25406340	    -21.80634449	      3.25264828	      7.05437214	     -1.19543153	     -3.13854909	    -20.85146737	      8.74227547	     24.58518402	      1.31072023	      0.93323250	      1.21493603	      3.44773997	     -3.01420402	      2.17593791	      0.02000000	      0.00034960	     -0.01137609	     -1.93575431	     -6.64820701	      0.44693099	      1.31141747
      0.00833333	     -2.31744613	     -0.62723494	     -3.22338875	     -0.77800121	      0.96847582	      0.25386728	    -21.96993605	      3.13729675	      6.97529642	     -1.59244882	     -3.15946962	    -20.86527151	      8.94247018	     24.57792889	      1.45900281	      1.03154543	      0.93759669	      3.60990272	     -3.04130054	      2.20781811	      0.02000000	      0.00008534	     -0.01110397	     -2.52266710	     -6.65401057	      0.31099958	      1.43005889
      0.01250000	     -2.23672200	     -0.46666386	     -3.29528702	     -0.77180099	      0.96731510	      0.25360371	    -22.16097362	      2.92388430	      6.76445991	     -2.07262626	     -3.12931275	    -20.87345124	      9.37475934	     24.49179143	      1.70741365	      1.13665179	      0.53382350	      3.57756904	     -3.14390339	      2.13124198	      0.02000000	     -0.00038656	     -0.01062337	     -3.19344195	     -6.62635463	      0.08362173	      1.66507541
      0.01666667	     -1.77188976	     -0.00253964	     -3.33773978	     -0.76535422	      0.96654475	      0.25314430	    -22.64881808	      2.27298925	      5.27098288	     -2.61139742	     -3.05082399	    -18.95334455	     16.76558326	     24.07483649	      2.46119103	      0.80013954	     -2.00871080	      1.57578382	     -3.51199986	      2.24547288	      0.01476783	     -0.00098257	     -0.00863889	     -3.59055850	     -7.09726532	     -0.50948003	      1.97475684
      0.02083333	     -1.77232104	      0.03664695	     -3.40018118	     -0.75882381	      0.96516588	      0.25300235	    -22.91249710	      2.19731370	      5.30483421	     -2.87068562	     -3.06526578	    -18.97304854	     16.77520783	     24.08286801	      2.48023994	      0.87825716	     -2.27722700	      1.83982699	     -3.47904616	      2.27766511	      0.01490333	     -0.00153432	     -0.00893079	     -3.82827008	     -6.91935027	     -0.55657254	      1.97753349
      0.02500000	     -1.74953710	      0.16975714	     -3.40862773	     -0.75275829	      0.96400939	      0.25283063	    -23.03329465	      2.06910859	      5.32354441	     -3.28878343	     -3.10219674	    -19.05464551	     16.80660915	     24.34264502	      2.61158472	      0.95615803	     -2.67816509	      2.22147850	     -3.40763667	      2.25178746	      0.01685578	     -0.00187478	     -0.00940105	     -4.71086802	     -7.05422161	     -0.79425657	      2.01466672
      0.02916667	     -1.74372191	      0.27035415	     -3.40248855	     -0.74634521	      0.96280807	      0.25249863	    -23.14221438	      1.96236960	      5.23983724	     -3.77534999	     -3.16721496	    -19.15995515	     16.84820011	     24.48556849	      2.79538294	      1.01533712	     -3.02630774	      2.56061340	     -3.41890107	      2.24757815	      0.01793199	     -0.00223616	     -0.00915586	     -5.33842476	     -7.02541659	     -0.94196295	      2.07641487
      0.03333333	     -1.75096427	      0.39574214	     -3.38876200	     -0.73986524	      0.96164974	      0.25220187	    -23.22547799	      1.83644075	      5.13981098	     -4.28077185	     -3.26649973	    -19.25008329	     16.90367292	     24.63285351	      2.99113366	      1.06622853	     -3.38818231	      2.91456541	     -3.42148266	      2.23559972	      0.01888768	     -0.00254494	     -0.00899966	     -5.86979441	     -6.98011213	     -1.12186195	      2.13848448
      0.03750000	     -1.76209933	      0.52330664	     -3.35223562	     -0.73332294	      0.96048769	      0.25182436	    -23.29550271	      1.71294764	      5.05078579	     -4.80289641	     -3.40197573	    -19.31182395	     16.96500354	     24.76938717	      3.18311776	      1.11173441	     -3.75015819	      3.26886201	     -3.39958383	      2.22149865	      0.01973385	     -0.00293251	     -0.00901406	     -6.37092374	     -6.93631849	     -1.32094103	      2.18919403
      0.04166667	     -1.78141426	      0.64116851	     -3.28746264	     -0.72676002	      0.95947693	      0.25149426	    -23.35430902	      1.61946691	      4.99466320	     -5.31040984	     -3.54692935	    -19.35152026	     17.01400466	     24.83771658	      3.35675200	      1.13409471	     -4.08755081	      3.60171501	     -3.35901281	      2.23162371	      0.02000000	     -0.00331064	     -0.00905750	     -6.74740380	     -6.86379487	     -1.50549052	      2.21462428
      0.04583333	     -1.89800213	      0.90052101	     -3.27196566	     -0.72023179	      0.95854159	      0.25116594	    -23.05759220	      1.34161876	      4.42357556	     -6.23042543	     -3.89409040	    -19.53251273	     17.20006664	     25.01871672	      3.77431271	      1.06846756	     -4.54033933	      3.83663261	     -3.49508658	      2.26262721	      0.02000000	     -0.00329326	     -0.00801677	     -7.29847631	     -6.70579417	     -1.84780912	      2.27845471
      0.05000000	     -1.90189490	      0.97722594	     -3.19093821	     -0.71319068	      0.95762050	      0.25080650	    -23.24259666	      1.29554176	      4.51107300	     -6.56818151	     -3.97679892	    -19.50800268	     17.23063102	     24.98950527	      3.87116685	      1.08108985	     -4.86199451	      4.15435013	     -3.39085143	      2.26387176	      0.02000000	     -0.00395555	     -0.00839161	     -7.43014852	     -6.54165896	     -1.93255131	      2.27953091
      0.05416667	     -1.92955893	      1.23557910	     -3.16439928	     -0.70701779	      0.95710800	      0.25069338	    -23.01233417	      1.05332231	      4.30692120	     -7.45690071	     -4.39006951	    -19.53301481	     17.36104413	     25.13480788	      4.16245313	      1.08851871	     -5.40931035	      4.41014416	     -3.35533718	      2.24866077	      0.02000000	     -0.00376618	     -0.00828370	     -7.85663261	     -6.59642386	     -2.35016343	      2.26833967
      0.05833333	     -2.03833244	      1.55311625	     -3.07834185	     -0.70042205	      0.95638514	      0.25027334	    -22.62506903	      0.73408150	      3.75665300	     -8.54876603	     -4.94603759	    -19.57049962	     17.66555021	     25.36402252	      4.63134134	      0.93255842	     -6.11915309	      4.46544988	     -3.38658722	      2.16502903	      0.02000000	     -0.00372555	     -0.00736353	     -8.09650455	     -6.44689021	     -2.75324624	      2.28532634
      0.06250000	     -2.05541503	      1.68302351	     -2.89504706	     -0.69380001	      0.95583353	      0.24989063	    -22.67054448	      0.69407199	      3.85118147	     -9.01884125	     -5.12984805	    -19.50808057	     17.75919853	     25.44862691	      4.78356808	      0.92662638	     -6.56678199	      4.84221600	     -3.25141581	      2.19159275	      0.02000000	     -0.00398931	     -0.00790764	     -8.23100459	     -6.42386158	     -2.98151236	      2.27792376
      0.06666667	     -2.96166908	      1.88034842	     -2.44542976	     -0.68745579	      0.95391697	      0.24823606	    -21.15747547	      0.48672125	      2.44466191	    -10.54957176	     -5.55126234	    -18.34733810	     21.82194309	     27.47075919	      5.55830419	     -0.21156153	    -10.23896295	      3.04647586	     -3.91012768	      3.28148037	      0.02000000	     -0.00303746	     -0.00436220	     -8.17768358	     -5.36330310	     -3.09110826	      1.72418435
      0.07083333	     -2.92524177	      1.95275184	     -2.32836067	     -0.68013351	      0.95352067	      0.24790372	    -21.31511740	      0.45691137	      2.54692369	    -10.94756060	     -5.66712211	    -18.32446885	     21.83517918	     27.31365730	      5.61076169	     -0.18966155	    -10.54170402	      3.32124307	     -3.75146210	      3.30783548	      0.02000000	     -0.00387790	     -0.00499983	     -8.26835928	     -5.18922156	     -3.17418593	      1.72741700
      0.07500000	     -2.72712206	      2.22673515	     -2.40570652	     -0.67433865	      0.95368808	      0.24809727	    -20.89325545	      0.10454191	      2.12685336	    -12.51023756	     -6.63941035	    -18.35504714	     21.89284130	     27.22278198	      5.65134882	     -0.27822624	    -11.11999961	      3.56041603	     -3.42987429	      3.18364377	      0.02000000	     -0.00377623	     -0.00660420	     -8.29239569	     -5.62954083	     -3.65510660	      1.74038953
      0.07916667	     -2.68303264	      2.43989126	     -2.30226336	     -0.66773870	      0.95367723	      0.24778246	    -20.62355992	     -0.11600255	      1.86980712	    -13.56487461	     -7.39275166	    -18.32104800	     22.04196921	     27.19415199	      5.91020786	     -0.34846769	    -11.65484970	      3.76862870	     -3.32633417	      3.12553566	      0.02000000	     -0.00374613	     -0.00642430	     -8.14535466	     -5.64978776	     -3.97381588	      1.80402982
      0.08333333	     -2.66914902	      2.66375685	     -2.20094487	     -0.66116258	      0.95368685	      0.24743958	    -20.29194398	     -0.35954778	      1.63961518	    -14.64579341	     -8.18552633	    -18.23945643	     22.21443343	     27.21442752	      6.13478038	     -0.41719793	    -12.23413054	      3.96502142	     -3.18809083	      3.06819122	      0.02000000	     -0.00368410	     -0.00666049	     -7.96073719	     -5.65506178	     -4.29913069	      1.80870171
